<mxfile host="app.diagrams.net" modified="2022-04-28T03:58:47.300Z" agent="5.0 (Windows NT 10.0; Win64; x64) AppleWebKit/537.36 (KHTML, like Gecko) Chrome/101.0.4951.41 Safari/537.36" etag="iBz4X10P9Z-IRZCTFHOd" version="17.4.6" type="github" pages="3">
  <diagram id="eA1Eqj6x8OHCaZPQKf1M" name="UserStory">
    <mxGraphModel dx="1422" dy="1854" grid="1" gridSize="10" guides="1" tooltips="1" connect="1" arrows="1" fold="1" page="1" pageScale="1" pageWidth="850" pageHeight="1100" math="0" shadow="0">
      <root>
        <mxCell id="0" />
        <mxCell id="1" parent="0" />
        <mxCell id="uXPesYncGwuY-eKEKNic-1" value="Human Resource Management in Public Sector" style="swimlane;startSize=20;horizontal=1;containerType=tree;" vertex="1" parent="1">
          <mxGeometry x="60" y="-20" width="1370" height="770" as="geometry">
            <mxRectangle x="40" y="40" width="760" height="150" as="alternateBounds" />
          </mxGeometry>
        </mxCell>
        <mxCell id="uXPesYncGwuY-eKEKNic-2" value="" style="edgeStyle=entityRelationEdgeStyle;startArrow=none;endArrow=none;segment=10;curved=1;rounded=0;" edge="1" parent="uXPesYncGwuY-eKEKNic-1" source="uXPesYncGwuY-eKEKNic-6" target="uXPesYncGwuY-eKEKNic-7">
          <mxGeometry relative="1" as="geometry" />
        </mxCell>
        <mxCell id="uXPesYncGwuY-eKEKNic-4" value="" style="edgeStyle=entityRelationEdgeStyle;startArrow=none;endArrow=none;segment=10;curved=1;rounded=0;" edge="1" parent="uXPesYncGwuY-eKEKNic-1" source="uXPesYncGwuY-eKEKNic-6" target="uXPesYncGwuY-eKEKNic-9">
          <mxGeometry relative="1" as="geometry" />
        </mxCell>
        <mxCell id="uXPesYncGwuY-eKEKNic-5" value="" style="edgeStyle=entityRelationEdgeStyle;startArrow=none;endArrow=none;segment=10;curved=1;rounded=0;" edge="1" parent="uXPesYncGwuY-eKEKNic-1" source="uXPesYncGwuY-eKEKNic-6" target="uXPesYncGwuY-eKEKNic-10">
          <mxGeometry relative="1" as="geometry" />
        </mxCell>
        <mxCell id="uXPesYncGwuY-eKEKNic-6" value="HR Manager" style="ellipse;whiteSpace=wrap;html=1;align=center;treeFolding=1;treeMoving=1;newEdgeStyle={&quot;edgeStyle&quot;:&quot;entityRelationEdgeStyle&quot;,&quot;startArrow&quot;:&quot;none&quot;,&quot;endArrow&quot;:&quot;none&quot;,&quot;segment&quot;:10,&quot;curved&quot;:1};" vertex="1" parent="uXPesYncGwuY-eKEKNic-1">
          <mxGeometry x="560" y="220" width="100" height="40" as="geometry" />
        </mxCell>
        <mxCell id="uXPesYncGwuY-eKEKNic-7" value="Manage Departments" style="whiteSpace=wrap;html=1;rounded=1;arcSize=50;align=center;verticalAlign=middle;strokeWidth=1;autosize=1;spacing=4;treeFolding=1;treeMoving=1;newEdgeStyle={&quot;edgeStyle&quot;:&quot;entityRelationEdgeStyle&quot;,&quot;startArrow&quot;:&quot;none&quot;,&quot;endArrow&quot;:&quot;none&quot;,&quot;segment&quot;:10,&quot;curved&quot;:1};" vertex="1" parent="uXPesYncGwuY-eKEKNic-1">
          <mxGeometry x="766" y="78" width="160" height="30" as="geometry" />
        </mxCell>
        <mxCell id="uXPesYncGwuY-eKEKNic-9" value="Manage contract type" style="whiteSpace=wrap;html=1;rounded=1;arcSize=50;align=center;verticalAlign=middle;strokeWidth=1;autosize=1;spacing=4;treeFolding=1;treeMoving=1;newEdgeStyle={&quot;edgeStyle&quot;:&quot;entityRelationEdgeStyle&quot;,&quot;startArrow&quot;:&quot;none&quot;,&quot;endArrow&quot;:&quot;none&quot;,&quot;segment&quot;:10,&quot;curved&quot;:1};" vertex="1" parent="uXPesYncGwuY-eKEKNic-1">
          <mxGeometry x="355" y="78" width="160" height="30" as="geometry" />
        </mxCell>
        <mxCell id="uXPesYncGwuY-eKEKNic-10" value="Branch" style="whiteSpace=wrap;html=1;shape=partialRectangle;top=0;left=0;bottom=1;right=0;points=[[0,1],[1,1]];fillColor=none;align=center;verticalAlign=bottom;routingCenterY=0.5;snapToPoint=1;autosize=1;treeFolding=1;treeMoving=1;newEdgeStyle={&quot;edgeStyle&quot;:&quot;entityRelationEdgeStyle&quot;,&quot;startArrow&quot;:&quot;none&quot;,&quot;endArrow&quot;:&quot;none&quot;,&quot;segment&quot;:10,&quot;curved&quot;:1};" vertex="1" parent="uXPesYncGwuY-eKEKNic-1">
          <mxGeometry x="385" y="300" width="72" height="26" as="geometry" />
        </mxCell>
        <mxCell id="uXPesYncGwuY-eKEKNic-15" value="" style="edgeStyle=entityRelationEdgeStyle;rounded=0;orthogonalLoop=1;jettySize=auto;html=1;startArrow=none;endArrow=none;segment=10;curved=1;" edge="1" source="uXPesYncGwuY-eKEKNic-6" target="uXPesYncGwuY-eKEKNic-18" parent="uXPesYncGwuY-eKEKNic-1">
          <mxGeometry relative="1" as="geometry" />
        </mxCell>
        <mxCell id="uXPesYncGwuY-eKEKNic-20" style="edgeStyle=orthogonalEdgeStyle;rounded=0;orthogonalLoop=1;jettySize=auto;html=1;" edge="1" parent="uXPesYncGwuY-eKEKNic-1" source="uXPesYncGwuY-eKEKNic-18" target="uXPesYncGwuY-eKEKNic-19">
          <mxGeometry relative="1" as="geometry" />
        </mxCell>
        <mxCell id="uXPesYncGwuY-eKEKNic-18" value="Data Entry" style="ellipse;whiteSpace=wrap;html=1;align=center;treeFolding=1;treeMoving=1;newEdgeStyle={&quot;edgeStyle&quot;:&quot;entityRelationEdgeStyle&quot;,&quot;startArrow&quot;:&quot;none&quot;,&quot;endArrow&quot;:&quot;none&quot;,&quot;segment&quot;:10,&quot;curved&quot;:1};" vertex="1" parent="uXPesYncGwuY-eKEKNic-1">
          <mxGeometry x="560" y="480" width="100" height="40" as="geometry" />
        </mxCell>
        <mxCell id="uXPesYncGwuY-eKEKNic-19" value="Manage staff profile" style="rounded=1;whiteSpace=wrap;html=1;" vertex="1" parent="uXPesYncGwuY-eKEKNic-1">
          <mxGeometry x="350" y="470" width="120" height="60" as="geometry" />
        </mxCell>
        <mxCell id="uXPesYncGwuY-eKEKNic-25" style="edgeStyle=orthogonalEdgeStyle;rounded=0;orthogonalLoop=1;jettySize=auto;html=1;entryX=1;entryY=0.5;entryDx=0;entryDy=0;" edge="1" parent="uXPesYncGwuY-eKEKNic-1" source="uXPesYncGwuY-eKEKNic-19" target="uXPesYncGwuY-eKEKNic-21">
          <mxGeometry relative="1" as="geometry" />
        </mxCell>
        <mxCell id="uXPesYncGwuY-eKEKNic-21" value="Staff Profile list" style="swimlane;fontStyle=0;childLayout=stackLayout;horizontal=1;startSize=26;fillColor=none;horizontalStack=0;resizeParent=1;resizeParentMax=0;resizeLast=0;collapsible=1;marginBottom=0;" vertex="1" parent="uXPesYncGwuY-eKEKNic-1">
          <mxGeometry x="100" y="420" width="140" height="156" as="geometry" />
        </mxCell>
        <mxCell id="uXPesYncGwuY-eKEKNic-22" value="Personal Information" style="text;strokeColor=none;fillColor=none;align=left;verticalAlign=top;spacingLeft=4;spacingRight=4;overflow=hidden;rotatable=0;points=[[0,0.5],[1,0.5]];portConstraint=eastwest;" vertex="1" parent="uXPesYncGwuY-eKEKNic-21">
          <mxGeometry y="26" width="140" height="26" as="geometry" />
        </mxCell>
        <mxCell id="uXPesYncGwuY-eKEKNic-23" value="Education history" style="text;strokeColor=none;fillColor=none;align=left;verticalAlign=top;spacingLeft=4;spacingRight=4;overflow=hidden;rotatable=0;points=[[0,0.5],[1,0.5]];portConstraint=eastwest;" vertex="1" parent="uXPesYncGwuY-eKEKNic-21">
          <mxGeometry y="52" width="140" height="26" as="geometry" />
        </mxCell>
        <mxCell id="uXPesYncGwuY-eKEKNic-24" value="Employment history" style="text;strokeColor=none;fillColor=none;align=left;verticalAlign=top;spacingLeft=4;spacingRight=4;overflow=hidden;rotatable=0;points=[[0,0.5],[1,0.5]];portConstraint=eastwest;" vertex="1" parent="uXPesYncGwuY-eKEKNic-21">
          <mxGeometry y="78" width="140" height="26" as="geometry" />
        </mxCell>
        <mxCell id="uXPesYncGwuY-eKEKNic-26" value="Award history" style="text;strokeColor=none;fillColor=none;align=left;verticalAlign=top;spacingLeft=4;spacingRight=4;overflow=hidden;rotatable=0;points=[[0,0.5],[1,0.5]];portConstraint=eastwest;" vertex="1" parent="uXPesYncGwuY-eKEKNic-21">
          <mxGeometry y="104" width="140" height="26" as="geometry" />
        </mxCell>
        <mxCell id="uXPesYncGwuY-eKEKNic-29" value="Salary records" style="text;strokeColor=none;fillColor=none;align=left;verticalAlign=top;spacingLeft=4;spacingRight=4;overflow=hidden;rotatable=0;points=[[0,0.5],[1,0.5]];portConstraint=eastwest;" vertex="1" parent="uXPesYncGwuY-eKEKNic-21">
          <mxGeometry y="130" width="140" height="26" as="geometry" />
        </mxCell>
        <mxCell id="uXPesYncGwuY-eKEKNic-27" value="Staff reporting" style="whiteSpace=wrap;html=1;rounded=1;arcSize=50;align=center;verticalAlign=middle;strokeWidth=1;autosize=1;spacing=4;treeFolding=1;treeMoving=1;newEdgeStyle={&quot;edgeStyle&quot;:&quot;entityRelationEdgeStyle&quot;,&quot;startArrow&quot;:&quot;none&quot;,&quot;endArrow&quot;:&quot;none&quot;,&quot;segment&quot;:10,&quot;curved&quot;:1};" vertex="1" parent="uXPesYncGwuY-eKEKNic-1">
          <mxGeometry x="766" y="318" width="120" height="30" as="geometry" />
        </mxCell>
        <mxCell id="uXPesYncGwuY-eKEKNic-28" value="" style="edgeStyle=entityRelationEdgeStyle;startArrow=none;endArrow=none;segment=10;curved=1;rounded=0;exitX=1;exitY=0.5;exitDx=0;exitDy=0;" edge="1" target="uXPesYncGwuY-eKEKNic-27" parent="uXPesYncGwuY-eKEKNic-1" source="uXPesYncGwuY-eKEKNic-6">
          <mxGeometry relative="1" as="geometry">
            <mxPoint x="750" y="360" as="sourcePoint" />
          </mxGeometry>
        </mxCell>
        <mxCell id="uXPesYncGwuY-eKEKNic-30" value="Active Vs Inactive employees" style="whiteSpace=wrap;html=1;shape=partialRectangle;top=0;left=0;bottom=1;right=0;points=[[0,1],[1,1]];fillColor=none;align=center;verticalAlign=bottom;routingCenterY=0.5;snapToPoint=1;recursiveResize=0;autosize=1;treeFolding=1;treeMoving=1;newEdgeStyle={&quot;edgeStyle&quot;:&quot;entityRelationEdgeStyle&quot;,&quot;startArrow&quot;:&quot;none&quot;,&quot;endArrow&quot;:&quot;none&quot;,&quot;segment&quot;:10,&quot;curved&quot;:1};" vertex="1" parent="uXPesYncGwuY-eKEKNic-1">
          <mxGeometry x="940" y="250" width="190" height="20" as="geometry" />
        </mxCell>
        <mxCell id="uXPesYncGwuY-eKEKNic-31" value="" style="edgeStyle=entityRelationEdgeStyle;startArrow=none;endArrow=none;segment=10;curved=1;rounded=0;exitX=1;exitY=0.25;exitDx=0;exitDy=0;" edge="1" target="uXPesYncGwuY-eKEKNic-30" parent="uXPesYncGwuY-eKEKNic-1" source="uXPesYncGwuY-eKEKNic-27">
          <mxGeometry relative="1" as="geometry">
            <mxPoint x="870" y="290" as="sourcePoint" />
          </mxGeometry>
        </mxCell>
        <mxCell id="uXPesYncGwuY-eKEKNic-32" value="Number of employees by contract type" style="whiteSpace=wrap;html=1;shape=partialRectangle;top=0;left=0;bottom=1;right=0;points=[[0,1],[1,1]];fillColor=none;align=center;verticalAlign=bottom;routingCenterY=0.5;snapToPoint=1;recursiveResize=0;autosize=1;treeFolding=1;treeMoving=1;newEdgeStyle={&quot;edgeStyle&quot;:&quot;entityRelationEdgeStyle&quot;,&quot;startArrow&quot;:&quot;none&quot;,&quot;endArrow&quot;:&quot;none&quot;,&quot;segment&quot;:10,&quot;curved&quot;:1};" vertex="1" parent="uXPesYncGwuY-eKEKNic-1">
          <mxGeometry x="935" y="300" width="240" height="20" as="geometry" />
        </mxCell>
        <mxCell id="uXPesYncGwuY-eKEKNic-33" value="" style="edgeStyle=entityRelationEdgeStyle;startArrow=none;endArrow=none;segment=10;curved=1;rounded=0;exitX=1;exitY=0.5;exitDx=0;exitDy=0;" edge="1" target="uXPesYncGwuY-eKEKNic-32" parent="uXPesYncGwuY-eKEKNic-1" source="uXPesYncGwuY-eKEKNic-27">
          <mxGeometry relative="1" as="geometry">
            <mxPoint x="900" y="348" as="sourcePoint" />
          </mxGeometry>
        </mxCell>
        <mxCell id="uXPesYncGwuY-eKEKNic-34" value="Open-Ended Contract" style="whiteSpace=wrap;html=1;shape=partialRectangle;top=0;left=0;bottom=1;right=0;points=[[0,1],[1,1]];fillColor=none;align=center;verticalAlign=bottom;routingCenterY=0.5;snapToPoint=1;recursiveResize=0;autosize=1;treeFolding=1;treeMoving=1;newEdgeStyle={&quot;edgeStyle&quot;:&quot;entityRelationEdgeStyle&quot;,&quot;startArrow&quot;:&quot;none&quot;,&quot;endArrow&quot;:&quot;none&quot;,&quot;segment&quot;:10,&quot;curved&quot;:1};" vertex="1" parent="uXPesYncGwuY-eKEKNic-1">
          <mxGeometry x="140" y="50" width="150" height="20" as="geometry" />
        </mxCell>
        <mxCell id="uXPesYncGwuY-eKEKNic-35" value="" style="edgeStyle=entityRelationEdgeStyle;startArrow=none;endArrow=none;segment=10;curved=1;rounded=0;exitX=0;exitY=0.25;exitDx=0;exitDy=0;" edge="1" target="uXPesYncGwuY-eKEKNic-34" parent="uXPesYncGwuY-eKEKNic-1" source="uXPesYncGwuY-eKEKNic-9">
          <mxGeometry relative="1" as="geometry">
            <mxPoint x="140" y="90" as="sourcePoint" />
          </mxGeometry>
        </mxCell>
        <mxCell id="uXPesYncGwuY-eKEKNic-37" value="Fix-term contract" style="whiteSpace=wrap;html=1;shape=partialRectangle;top=0;left=0;bottom=1;right=0;points=[[0,1],[1,1]];fillColor=none;align=center;verticalAlign=bottom;routingCenterY=0.5;snapToPoint=1;recursiveResize=0;autosize=1;treeFolding=1;treeMoving=1;newEdgeStyle={&quot;edgeStyle&quot;:&quot;entityRelationEdgeStyle&quot;,&quot;startArrow&quot;:&quot;none&quot;,&quot;endArrow&quot;:&quot;none&quot;,&quot;segment&quot;:10,&quot;curved&quot;:1};" vertex="1" parent="uXPesYncGwuY-eKEKNic-1">
          <mxGeometry x="140" y="88" width="120" height="20" as="geometry" />
        </mxCell>
        <mxCell id="uXPesYncGwuY-eKEKNic-38" value="" style="edgeStyle=entityRelationEdgeStyle;startArrow=none;endArrow=none;segment=10;curved=1;rounded=0;exitX=0;exitY=0.5;exitDx=0;exitDy=0;" edge="1" target="uXPesYncGwuY-eKEKNic-37" parent="uXPesYncGwuY-eKEKNic-1" source="uXPesYncGwuY-eKEKNic-9">
          <mxGeometry relative="1" as="geometry">
            <mxPoint x="100" y="140" as="sourcePoint" />
          </mxGeometry>
        </mxCell>
        <mxCell id="uXPesYncGwuY-eKEKNic-39" value="Internship contract" style="whiteSpace=wrap;html=1;shape=partialRectangle;top=0;left=0;bottom=1;right=0;points=[[0,1],[1,1]];fillColor=none;align=center;verticalAlign=bottom;routingCenterY=0.5;snapToPoint=1;recursiveResize=0;autosize=1;treeFolding=1;treeMoving=1;newEdgeStyle={&quot;edgeStyle&quot;:&quot;entityRelationEdgeStyle&quot;,&quot;startArrow&quot;:&quot;none&quot;,&quot;endArrow&quot;:&quot;none&quot;,&quot;segment&quot;:10,&quot;curved&quot;:1};" vertex="1" parent="uXPesYncGwuY-eKEKNic-1">
          <mxGeometry x="140" y="130" width="130" height="20" as="geometry" />
        </mxCell>
        <mxCell id="uXPesYncGwuY-eKEKNic-40" value="" style="edgeStyle=entityRelationEdgeStyle;startArrow=none;endArrow=none;segment=10;curved=1;rounded=0;exitX=0;exitY=0.75;exitDx=0;exitDy=0;" edge="1" target="uXPesYncGwuY-eKEKNic-39" parent="uXPesYncGwuY-eKEKNic-1" source="uXPesYncGwuY-eKEKNic-9">
          <mxGeometry relative="1" as="geometry">
            <mxPoint x="90" y="180" as="sourcePoint" />
          </mxGeometry>
        </mxCell>
        <mxCell id="uXPesYncGwuY-eKEKNic-41" value="Number of empoyees per department" style="whiteSpace=wrap;html=1;shape=partialRectangle;top=0;left=0;bottom=1;right=0;points=[[0,1],[1,1]];fillColor=none;align=center;verticalAlign=bottom;routingCenterY=0.5;snapToPoint=1;recursiveResize=0;autosize=1;treeFolding=1;treeMoving=1;newEdgeStyle={&quot;edgeStyle&quot;:&quot;entityRelationEdgeStyle&quot;,&quot;startArrow&quot;:&quot;none&quot;,&quot;endArrow&quot;:&quot;none&quot;,&quot;segment&quot;:10,&quot;curved&quot;:1};" vertex="1" parent="uXPesYncGwuY-eKEKNic-1">
          <mxGeometry x="940" y="340" width="230" height="20" as="geometry" />
        </mxCell>
        <mxCell id="uXPesYncGwuY-eKEKNic-42" value="" style="edgeStyle=entityRelationEdgeStyle;startArrow=none;endArrow=none;segment=10;curved=1;rounded=0;exitX=1;exitY=0.75;exitDx=0;exitDy=0;" edge="1" target="uXPesYncGwuY-eKEKNic-41" parent="uXPesYncGwuY-eKEKNic-1" source="uXPesYncGwuY-eKEKNic-27">
          <mxGeometry relative="1" as="geometry">
            <mxPoint x="900" y="388" as="sourcePoint" />
          </mxGeometry>
        </mxCell>
      </root>
    </mxGraphModel>
  </diagram>
  <diagram id="_MRU6gIQzNzlVqQfkxKe" name="User Activities">
    <mxGraphModel dx="1422" dy="754" grid="1" gridSize="10" guides="1" tooltips="1" connect="1" arrows="1" fold="1" page="1" pageScale="1" pageWidth="850" pageHeight="1100" math="0" shadow="0">
      <root>
        <mxCell id="0" />
        <mxCell id="1" parent="0" />
      </root>
    </mxGraphModel>
  </diagram>
  <diagram id="vfSgwGG7v8InYq-zodpB" name="UML">
    <mxGraphModel dx="1422" dy="754" grid="1" gridSize="10" guides="1" tooltips="1" connect="1" arrows="1" fold="1" page="1" pageScale="1" pageWidth="850" pageHeight="1100" math="0" shadow="0">
      <root>
        <mxCell id="0" />
        <mxCell id="1" parent="0" />
      </root>
    </mxGraphModel>
  </diagram>
</mxfile>
